<?xml version="1.0" encoding="utf-8"?>
<!-- Generator: Adobe Illustrator 22.1.0, SVG Export Plug-In . SVG Version: 6.00 Build 0)  -->
<svg version="1.1" xmlns="http://www.w3.org/2000/svg" xmlns:xlink="http://www.w3.org/1999/xlink" x="0px" y="0px"
	 viewBox="0 0 217 237" style="enable-background:new 0 0 217 237;" xml:space="preserve">
<style type="text/css">
	.st0{fill:#A4F2FF;}
	.st1{filter:url(#Adobe_OpacityMaskFilter);}
	.st2{fill:#FFFFFF;}
	.st3{mask:url(#mask-2_1_);}
	.st4{fill:#055A4F;stroke:#055A4F;stroke-width:163;stroke-miterlimit:10;}
	.st5{filter:url(#Adobe_OpacityMaskFilter_1_);}
	.st6{mask:url(#mask-4_1_);}
	.st7{fill:#D0C6AC;}
	.st8{filter:url(#Adobe_OpacityMaskFilter_2_);}
	.st9{mask:url(#mask-6_1_);}
	.st10{fill:#FFD3AE;}
	.st11{filter:url(#Adobe_OpacityMaskFilter_3_);}
	.st12{mask:url(#mask-6_2_);fill-opacity:0.1;}
	.st13{fill:#B7C1DB;}
	.st14{filter:url(#Adobe_OpacityMaskFilter_4_);}
	.st15{mask:url(#mask-8_1_);}
	.st16{fill:#FFB30B;}
	.st17{filter:url(#Adobe_OpacityMaskFilter_5_);}
	.st18{display:none;mask:url(#mask-8_2_);fill:#F4F4F4;}
	.st19{fill:#212F44;}
	.st20{fill:#1F2835;}
	.st21{fill:#F4F4F4;}
	.st22{filter:url(#Adobe_OpacityMaskFilter_6_);}
	.st23{mask:url(#mask-8_3_);fill-opacity:0.16;}
	.st24{filter:url(#Adobe_OpacityMaskFilter_7_);}
	.st25{mask:url(#mask-10_1_);fill:#FFFFFF;}
	.st26{filter:url(#Adobe_OpacityMaskFilter_8_);}
	.st27{mask:url(#mask-10_2_);}
	.st28{fill:#FC1A4A;}
	.st29{fill-opacity:0.16;}
	.st30{fill:#055A4F;}
</style>
<g id="Layer_1">
	<title>mf-avatar</title>
	<desc>Created with Sketch.</desc>
	<g id="Website">
		<g id="mf-avatar" transform="translate(-10.000000, -15.000000)">
			<g id="Circle" transform="translate(10.800000, 36.000000)">
				<g id="Circle-Background">
					<circle id="path-1_1_" class="st0" cx="108.9" cy="112.1" r="93.3"/>
				</g>
				<defs>
					<filter id="Adobe_OpacityMaskFilter" filterUnits="userSpaceOnUse" x="-65.9" y="-62.7" width="349.9" height="349.6">
						<feColorMatrix  type="matrix" values="1 0 0 0 0  0 1 0 0 0  0 0 1 0 0  0 0 0 1 0"/>
					</filter>
				</defs>
				<mask maskUnits="userSpaceOnUse" x="-65.9" y="-62.7" width="349.9" height="349.6" id="mask-2_1_">
					<g class="st1">
						<circle id="path-1_2_" class="st2" cx="108.9" cy="112.1" r="93.3"/>
					</g>
				</mask>
				<g id="_xD83D__xDD8D_-Circle-Color" class="st3">
					<rect id="_xD83D__xDD8D_Color" x="15.6" y="18.8" class="st4" width="186.9" height="186.6"/>
				</g>
			</g>
			<g id="Mask">
			</g>
			<defs>
				<filter id="Adobe_OpacityMaskFilter_1_" filterUnits="userSpaceOnUse" x="17" y="51.7" width="206" height="190.3">
					<feColorMatrix  type="matrix" values="1 0 0 0 0  0 1 0 0 0  0 0 1 0 0  0 0 0 1 0"/>
				</filter>
			</defs>
			<mask maskUnits="userSpaceOnUse" x="17" y="51.7" width="206" height="190.3" id="mask-4_1_">
				<g class="st5">
					<path id="path-3_1_" class="st2" d="M17,148.1V23.7h205.2v124.4h-9.3c0,51.5-41.8,93.3-93.3,93.3s-93.3-41.8-93.3-93.3l0,0H17z
						"/>
				</g>
			</mask>
			<g id="Avataaar" class="st6">
				<g id="Body" transform="translate(28.800000, 32.400000)">
					<g>
						<path id="path-5_1_" class="st7" d="M90.9,19.3c24,0,43.5,19.5,43.5,43.5l0,4.8c4.4,0.7,7.8,4.6,7.8,9.2v10.9
							c0,4.7-3.5,8.6-8,9.2c-1.6,15.4-11.2,28.4-24.6,34.8l0,14.3h3.1c30.9,0,56,25.1,56,56v7H13.1v-7c0-30.9,25.1-56,56-56h3.1
							l0-14.3c-13.4-6.4-23-19.4-24.6-34.8c-4.5-0.6-8-4.5-8-9.2V76.8c0-4.6,3.4-8.5,7.8-9.2l0-4.8C47.3,38.8,66.8,19.3,90.9,19.3z"
							/>
					</g>
					<defs>
						<filter id="Adobe_OpacityMaskFilter_2_" filterUnits="userSpaceOnUse" x="-11.8" y="19.3" width="205.9" height="190.3">
							<feColorMatrix  type="matrix" values="1 0 0 0 0  0 1 0 0 0  0 0 1 0 0  0 0 0 1 0"/>
						</filter>
					</defs>
					<mask maskUnits="userSpaceOnUse" x="-11.8" y="19.3" width="205.9" height="190.3" id="mask-6_1_">
						<g class="st8">
							<path id="path-5_2_" class="st2" d="M90.9,19.3c24,0,43.5,19.5,43.5,43.5l0,4.8c4.4,0.7,7.8,4.6,7.8,9.2v10.9
								c0,4.7-3.5,8.6-8,9.2c-1.6,15.4-11.2,28.4-24.6,34.8l0,14.3h3.1c30.9,0,56,25.1,56,56v7H13.1v-7c0-30.9,25.1-56,56-56h3.1
								l0-14.3c-13.4-6.4-23-19.4-24.6-34.8c-4.5-0.6-8-4.5-8-9.2V76.8c0-4.6,3.4-8.5,7.8-9.2l0-4.8C47.3,38.8,66.8,19.3,90.9,19.3z
								"/>
						</g>
					</mask>
					<g id="Skin_x2F__xD83D__xDC76__xD83C__xDFFB_-05-Pale" class="st9">
						<g id="Color" transform="translate(-28.800000, 0.000000)">
							<rect x="17" y="19.3" class="st10" width="205.9" height="190.3"/>
						</g>
					</g>
					<defs>
						<filter id="Adobe_OpacityMaskFilter_3_" filterUnits="userSpaceOnUse" x="47.3" y="92.3" width="87.1" height="49.8">
							<feColorMatrix  type="matrix" values="1 0 0 0 0  0 1 0 0 0  0 0 1 0 0  0 0 0 1 0"/>
						</filter>
					</defs>
					<mask maskUnits="userSpaceOnUse" x="47.3" y="92.3" width="87.1" height="49.8" id="mask-6_2_">
						<g class="st11">
							<path id="path-5_3_" class="st2" d="M90.9,19.3c24,0,43.5,19.5,43.5,43.5l0,4.8c4.4,0.7,7.8,4.6,7.8,9.2v10.9
								c0,4.7-3.5,8.6-8,9.2c-1.6,15.4-11.2,28.4-24.6,34.8l0,14.3h3.1c30.9,0,56,25.1,56,56v7H13.1v-7c0-30.9,25.1-56,56-56h3.1
								l0-14.3c-13.4-6.4-23-19.4-24.6-34.8c-4.5-0.6-8-4.5-8-9.2V76.8c0-4.6,3.4-8.5,7.8-9.2l0-4.8C47.3,38.8,66.8,19.3,90.9,19.3z
								"/>
						</g>
					</mask>
					<path id="Neck-Shadow" class="st12" d="M47.3,92.3c0,24,19.5,43.5,43.5,43.5s43.5-19.5,43.5-43.5l0,0v6.2
						c0,24-19.5,43.5-43.5,43.5s-43.5-19.5-43.5-43.5V92.3z"/>
				</g>
				<g id="Clothing_x2F_Hoodie" transform="translate(0.000000, 153.000000)">
					<g id="Hoodie">
						<path id="path-7_1_" class="st13" d="M138.3,13c14.1,1.6,24.9,5.9,24.9,17.1l0-0.3c20.1,8.5,34.2,28.4,34.2,51.6v7H41.9v-7
							c0-23.2,14.1-43.1,34.2-51.6c0.2-11,10.9-15.2,24.9-16.8l0,14.7c0,10.3,8.4,18.7,18.7,18.7s18.7-8.4,18.7-18.7L138.3,13z"/>
					</g>
					<defs>
						<filter id="Adobe_OpacityMaskFilter_4_" filterUnits="userSpaceOnUse" x="17" y="2.8" width="206" height="85.5">
							<feColorMatrix  type="matrix" values="1 0 0 0 0  0 1 0 0 0  0 0 1 0 0  0 0 0 1 0"/>
						</filter>
					</defs>
					<mask maskUnits="userSpaceOnUse" x="17" y="2.8" width="206" height="85.5" id="mask-8_1_">
						<g class="st14">
							<path id="path-7_2_" class="st2" d="M138.3,13c14.1,1.6,24.9,5.9,24.9,17.1l0-0.3c20.1,8.5,34.2,28.4,34.2,51.6v7H41.9v-7
								c0-23.2,14.1-43.1,34.2-51.6c0.2-11,10.9-15.2,24.9-16.8l0,14.7c0,10.3,8.4,18.7,18.7,18.7s18.7-8.4,18.7-18.7l0,0L138.3,13z
								"/>
						</g>
					</mask>
					<g id="Color_x2F_Palette_x2F_Slate" class="st15">
						<rect id="_xD83D__xDD8D_Color_1_" x="17" y="2.8" class="st16" width="206" height="85.5"/>
					</g>
					<defs>
						<filter id="Adobe_OpacityMaskFilter_5_" filterUnits="userSpaceOnUse" x="90.9" y="48" width="57.5" height="31.9">
							<feColorMatrix  type="matrix" values="1 0 0 0 0  0 1 0 0 0  0 0 1 0 0  0 0 0 1 0"/>
						</filter>
					</defs>
					<mask maskUnits="userSpaceOnUse" x="90.9" y="48" width="57.5" height="31.9" id="mask-8_2_">
						<g class="st17">
							<path id="path-7_3_" class="st2" d="M138.3,20.3c14.1,1.2,24.9,4.7,24.9,13.5l0-0.3c20.1,6.7,34.2,22.5,34.2,40.8v5.5H41.9
								v-5.5C41.9,56,56,40.3,76.1,33.6c0.2-8.7,10.9-12,24.9-13.3l0,11.6c0,8.2,8.4,14.8,18.7,14.8s18.7-6.6,18.7-14.8l0,0
								L138.3,20.3z"/>
						</g>
					</mask>
					<path id="Straps" class="st18" d="M96.3,50.2l0,27c0,1.5-1.2,2.7-2.7,2.7l0,0c-1.5,0-2.7-1.2-2.7-2.7l0-29.2
						C92.6,48.8,94.4,49.6,96.3,50.2z M148.4,48l0,24.8c0,1.2-1.2,2.2-2.7,2.2c-1.5,0-2.7-1-2.7-2.2l0-22.6
						C144.9,49.6,146.7,48.8,148.4,48z"/>
					<g>
						<path class="st19" d="M90,76.9c0,1.5,1.2,2.7,2.7,2.7s2.7-1.2,2.7-2.7l0-6.7c0,1.5-1.2,2.7-2.7,2.7c-1.5,0-2.7-1.2-2.7-2.7"/>
						<path class="st20" d="M147.2,66.8c0,1.2-1.2,2.2-2.7,2.2c-1.5,0-2.7-1-2.7-2.1l0,6.7c0,1.2,1.2,2.2,2.7,2.2s2.7-1,2.7-2.2"/>
						<path class="st21" d="M90.1,47.6c0,7.6-0.1,15.3-0.1,22.9c0,1.5,1.2,2.7,2.7,2.7c1.5,0,2.7-1.2,2.7-2.7c0-6.7,0-13.4,0-20.1
							c-0.8-0.3-1.8-0.7-2.8-1.2C91.7,48.7,90.8,48.1,90.1,47.6z"/>
						<path class="st21" d="M144.4,69.1c1.5,0,2.7-1,2.7-2.2l0-18.1c-0.7,0.5-1.5,0.9-2.5,1.4c-1,0.5-1.9,0.8-2.7,1.1
							c-0.1,5.2-0.2,10.4-0.3,15.7C141.7,68.1,142.9,69.1,144.4,69.1z"/>
					</g>
					<defs>
						<filter id="Adobe_OpacityMaskFilter_6_" filterUnits="userSpaceOnUse" x="68" y="12.7" width="103.4" height="43">
							<feColorMatrix  type="matrix" values="1 0 0 0 0  0 1 0 0 0  0 0 1 0 0  0 0 0 1 0"/>
						</filter>
					</defs>
					<mask maskUnits="userSpaceOnUse" x="68" y="12.7" width="103.4" height="43" id="mask-8_3_">
						<g class="st22">
							<path id="path-7_4_" class="st2" d="M138.3,13c14.1,1.6,24.9,5.9,24.9,17.1l0-0.3c20.1,8.5,34.2,28.4,34.2,51.6v7H41.9v-7
								c0-23.2,14.1-43.1,34.2-51.6c0.2-11,10.9-15.2,24.9-16.8l0,14.7c0,10.3,8.4,18.7,18.7,18.7s18.7-8.4,18.7-18.7l0,0L138.3,13z
								"/>
						</g>
					</mask>
					<path id="Shadow" class="st23" d="M151.6,12.7c11.7,2.2,19.8,6.6,19.8,15.2c0,15.3-25.7,27.7-51.7,27.7S68,43.3,68,27.9
						c0-8.6,8.1-13,19.8-15.2c-7.1,2.6-11.6,7-11.6,14.3c0,15.9,21.6,28.7,43.5,28.7s43.5-12.9,43.5-28.7c0-7.1-4.4-11.5-11.2-14.1
						L151.6,12.7z"/>
				</g>
				<g id="Face" transform="translate(68.400000, 73.800000)">
					<g id="Mouth_x2F_Smile" transform="translate(1.800000, 46.800000)">
						<g id="Mouth">
							<path id="path-9_1_" d="M34.8,19c0.8,7.4,7.1,13.1,14.7,13.1c7.6,0,13.9-5.8,14.7-13.2c0.1-0.6-0.6-1.6-1.4-1.6
								c-11.6,0-20.4,0-26.4,0C35.5,17.4,34.7,18.3,34.8,19z"/>
						</g>
						<defs>
							<filter id="Adobe_OpacityMaskFilter_7_" filterUnits="userSpaceOnUse" x="37.8" y="8.8" width="24.1" height="12.4">
								<feColorMatrix  type="matrix" values="1 0 0 0 0  0 1 0 0 0  0 0 1 0 0  0 0 0 1 0"/>
							</filter>
						</defs>
						<mask maskUnits="userSpaceOnUse" x="37.8" y="8.8" width="24.1" height="12.4" id="mask-10_1_">
							<g class="st24">
								<path id="path-9_2_" class="st2" d="M34.8,19c0.8,7.4,7.1,13.1,14.7,13.1c7.6,0,13.9-5.8,14.7-13.2c0.1-0.6-0.6-1.6-1.4-1.6
									c-11.6,0-20.4,0-26.4,0C35.5,17.4,34.7,18.3,34.8,19z"/>
							</g>
						</mask>
						<path id="Teeth" class="st25" d="M41.7,8.8H58c2.1,0,3.9,1.7,3.9,3.9v4.7c0,2.1-1.7,3.9-3.9,3.9H41.7c-2.1,0-3.9-1.7-3.9-3.9
							v-4.7C37.8,10.5,39.5,8.8,41.7,8.8z"/>
						<defs>
							<filter id="Adobe_OpacityMaskFilter_8_" filterUnits="userSpaceOnUse" x="37" y="25.9" width="24.9" height="17.1">
								<feColorMatrix  type="matrix" values="1 0 0 0 0  0 1 0 0 0  0 0 1 0 0  0 0 0 1 0"/>
							</filter>
						</defs>
						<mask maskUnits="userSpaceOnUse" x="37" y="25.9" width="24.9" height="17.1" id="mask-10_2_">
							<g class="st26">
								<path id="path-9_3_" class="st2" d="M34.8,19c0.8,7.4,7.1,13.1,14.7,13.1c7.6,0,13.9-5.8,14.7-13.2c0.1-0.6-0.6-1.6-1.4-1.6
									c-11.6,0-20.4,0-26.4,0C35.5,17.4,34.7,18.3,34.8,19z"/>
							</g>
						</mask>
						<g id="Tongue" class="st27">
							<g transform="translate(34.200000, 21.600000)">
								<circle class="st28" cx="11.4" cy="12.9" r="8.6"/>
								<circle class="st28" cx="19.1" cy="12.9" r="8.6"/>
							</g>
						</g>
					</g>
					<g id="Nose_x2F_Default" transform="translate(25.200000, 36.000000)">
						<path id="Nose" class="st29" d="M16.7,14.9c0,3.4,4.2,6.2,9.3,6.2l0,0c5.2,0,9.3-2.8,9.3-6.2"/>
					</g>
					<g id="Eyes_x2F_Happy-_xD83D__xDE01_" transform="translate(0.000000, 7.200000)">
						<path id="Squint" d="M20.3,30.1c1.4-3,4.7-5,8.4-5c3.7,0,7,2,8.4,5c0.4,0.9-0.2,1.6-0.8,1.1c-1.9-1.6-4.6-2.7-7.6-2.7
							c-2.9,0-5.5,1-7.4,2.5C20.6,31.5,19.9,31,20.3,30.1z"/>
						<path id="Squint_1_" d="M65.4,30.1c1.4-3,4.7-5,8.4-5c3.7,0,7,2,8.4,5c0.4,0.9-0.2,1.6-0.8,1.1c-1.9-1.6-4.6-2.7-7.6-2.7
							c-2.9,0-5.5,1-7.4,2.5C65.7,31.5,65,31,65.4,30.1z"/>
					</g>
					<g id="Eyebrow_x2F_Natural_x2F_Default-Natural">
						<path id="Eyebrow" d="M28.4,18.4c-4.5,0.2-11.8,3.5-11.6,8c0,0.1,0.2,0.2,0.3,0.1c2.1-2.3,17.3-4.6,22.7-3.4
							c0.5,0.1,0.9-0.4,0.6-0.7C37.7,19.4,32.4,18.2,28.4,18.4"/>
						<path id="Eyebrow_1_" d="M74.9,18.4c4.5,0.2,11.8,3.5,11.6,8c0,0.1-0.2,0.2-0.3,0.1c-2.1-2.3-17.3-4.6-22.7-3.4
							c-0.5,0.1-0.9-0.4-0.6-0.7C65.6,19.4,70.9,18.2,74.9,18.4"/>
					</g>
				</g>
			</g>
		</g>
	</g>
	<path class="st30" d="M275,91.7"/>
</g>
<g id="Layer_2">
	<path d="M93.8,61.3c9.1,1.4,16.4,1.7,21.6,1.7c3.9,0,10.6-0.2,19.5,1c4.2,0.6,6.4,0.7,8.7,2.1c5.4,3.3,7,9.5,7.7,12
		c1.7,6.4,1.7,15.7,1.2,20.3c0,0.4-0.3,2.6,0.6,5c0.2,0.6,1.2,3.1,2.6,3.1c1.2,0,2-1.7,2.9-3.4c1.4-2.7,1.7-4.7,2.7-8.4
		c1-3.7,0.9-2.9,1.7-5.9c0.6-2.5,1.3-5.5,1.7-9.5c0.4-3.8,0.3-6.7,0.2-7.7c-0.1-2.7-0.2-5-1.1-7.9c-1.6-5.4-4.3-7.8-5.2-7.8
		c-1.7,0-0.9,0-1.7,0c-0.9,0,6.1-4.3,6.1-8.6s0-7.8-0.9-8.6c0,0,0.9,0.9-1.7,5.2c-2.6,4.3-3.5,5.2-5.2,6.9c0,0,2.6-2.6,3.5-8.6
		c0.9-6.1-1.7-13-1.7-13s0.9,6.1-0.9,11.2c-1.7,5.2-4.3,6.9-4.3,6.9s4.3-6.9,3.5-13.8c-0.9-6.9-6.9-16.4-8.6-17.3
		c0.2,0.7,0.4,1.5,0.6,2.2c0.1,2,0,3.9-0.4,3.9c-0.1,0-0.2-0.1-0.2-0.1c-0.8-0.8-3.3-5.2-3.5-5.6c-6.3-3.4-17.5-8.3-32.1-8.9
		c-18.4-0.7-31.6,6-39.7,10.1c-15.5,8-21,16.5-22.6,19.2c-1.9,3.3-6.4,10.7-3.3,16.2c0.9,1.7,2.3,2.8,3.5,3.5c0,0-3.5-1.7-6.1,6.1
		C40.1,70.8,41,75.1,41,75.1s0-4.3,4.3-7.8c4.3-3.5,6.1-5.2,6.1-5.2s-4.3,3.5-4.3,7.8s0.9,4.3,0.9,4.3s0-1.7,0.9-2.6
		c0.9-0.9,1.7-1.7,1.7-1.7s-0.9-0.9,0,4.3c0.3,1.8,0.6,2.7,1.2,5.3c0.6,2.4,0.5,2.4,0.9,4.3c0.5,2.2,1.1,4.2,2.3,8.2
		c0.7,2.3,1.2,4,2,6.3c1.1,3.3,1.7,4.9,2.5,6.5c2.1,4.2,3.3,4.8,4,4.9c0.1,0,1.1,0.1,1.9-0.5c0.8-0.6,0.9-1.7,1-2.2
		c0.4-4.1,0.6-6.1,0.5-8.4c-0.1-2,0.2-4.4,0.8-9.1c0.5-4.1,0.9-6.5,1.1-7.4c0.6-2.9,0.9-4.4,1.6-6.2c0.4-0.9,1.5-3.5,3.6-5.9
		c3.4-3.8,7.6-5.2,13-6.9C89.7,62.1,92.1,61.6,93.8,61.3z"/>
</g>
</svg>
