<svg id="Capa_1" enable-background="new 0 0 512 512" height="512" viewBox="0 0 512 512" width="512" xmlns="http://www.w3.org/2000/svg"><g><path d="m60 271h-30c0-111.24 83.925-206.997 193.876-222.729l4.248 29.707c-95.273 13.623-168.124 96.606-168.124 193.022z" fill="#61729b"/><path d="m75 46h151v30h-151z" fill="#61729b"/><path d="m482 271h-30c0-96.416-72.851-179.399-168.124-193.022l4.248-29.707c109.951 15.732 193.876 111.489 193.876 222.729z" fill="#47568c"/><path d="m286 46h151v30h-151z" fill="#47568c"/><path d="m271 146.849-15 19.151-15-19.151-92.095 153.492 67.815 165.659h39.28 39.28l67.815-165.659z" fill="#edf5ff"/><path d="m363.095 300.341-92.095-153.492-15 19.151v300h39.28z" fill="#d5e8fe"/><path d="m256 16h-45v90h45 45v-90z" fill="#fabe2c"/><path d="m256 16h45v90h-45z" fill="#ff9100"/><path d="m256 121.85-15 24.999v169.151h15 15v-169.151z" fill="#d5e8fe"/><path d="m271 146.849-15-24.999v194.15h15z" fill="#b5dbff"/><path d="m256 436h-105v60h105 105v-60z" fill="#61729b"/><path d="m256 436h105v60h-105z" fill="#47568c"/><path d="m467 346c-24.814 0-45-20.186-45-45s20.186-45 45-45 45 20.186 45 45-20.186 45-45 45z" fill="#ff9100"/><path d="m467 106c-24.814 0-45-20.186-45-45s20.186-45 45-45 45 20.186 45 45-20.186 45-45 45z" fill="#ff9100"/><g fill="#fabe2c"><path d="m45 346c-24.814 0-45-20.186-45-45s20.186-45 45-45 45 20.186 45 45-20.186 45-45 45z"/><path d="m45 106c-24.814 0-45-20.186-45-45s20.186-45 45-45 45 20.186 45 45-20.186 45-45 45z"/></g></g></svg>