<?xml version="1.0"?>
<svg xmlns="http://www.w3.org/2000/svg" height="512px" viewBox="0 -30 512 511" width="512px" class=""><g><path d="m501.699219 133.265625h-501.699219v253.953125c0 35.527344 28.800781 64.332031 64.328125 64.332031h437.371094c5.6875 0 10.300781-4.613281 10.300781-10.304687v-297.679688c0-5.691406-4.613281-10.300781-10.300781-10.300781zm0 0" fill="#64bdff" data-original="#64BDFF" class=""/><path d="m512 143.570312v297.679688c0 5.6875-4.613281 10.300781-10.300781 10.300781h-25.972657c5.6875 0 10.300782-4.613281 10.300782-10.300781v-297.679688c0-5.699218-4.613282-10.304687-10.300782-10.304687h25.972657c5.6875 0 10.300781 4.605469 10.300781 10.304687zm0 0" fill="#43a3f9" data-original="#43A3F9" class=""/><g fill="#1685fb"><path d="m90.507812 308.507812c0 5.691407-4.609374 10.300782-10.300781 10.300782h-15.882812c-35.523438 0-64.324219 28.800781-64.324219 64.328125v-318.308594c0-35.527344 28.800781-64.328125 64.328125-64.328125h15.878906c5.6875 0 10.300781 4.613281 10.300781 10.300781zm0 0" data-original="#1685FB" class=""/><path d="m463.960938 266.519531c0-32.761719-26.652344-59.410156-59.410157-59.410156-31.5625 0-57.445312 24.738281-59.296875 55.84375h-35.566406c-4.265625 0-7.722656 3.457031-7.722656 7.726563v88.257812c0 4.265625 3.457031 7.726562 7.722656 7.726562h88.257812c4.269532 0 7.726563-3.460937 7.726563-7.726562v-33.035156c32.242187-.601563 58.289063-27 58.289063-59.382813zm-59.410157-43.960937c24.238281 0 43.957031 19.722656 43.957031 43.960937 0 23.863281-19.113281 43.332031-42.835937 43.929688v-39.769531c0-4.269532-3.457031-7.726563-7.726563-7.726563h-37.199218c1.824218-22.574219 20.765625-40.394531 43.804687-40.394531zm-14.332031 85.511718c-13.53125-4.683593-24.082031-15.792968-27.984375-29.664062h27.984375zm-72.804688 43.140626v-72.804688h28.917969c4.570313 22.417969 21.8125 40.28125 43.886719 45.769531v27.035157zm0 0" data-original="#1685FB" class=""/><path d="m450.4375 331.265625h-17.1875c-4.265625 0-7.726562 3.460937-7.726562 7.726563 0 4.269531 3.460937 7.726562 7.726562 7.726562h17.1875c4.269531 0 7.726562-3.457031 7.726562-7.726562 0-4.265626-3.457031-7.726563-7.726562-7.726563zm0 0" data-original="#1685FB" class=""/><path d="m450.4375 351.210938h-17.1875c-4.265625 0-7.726562 3.457031-7.726562 7.726562 0 4.265625 3.460937 7.722656 7.726562 7.722656h17.1875c4.269531 0 7.726562-3.457031 7.726562-7.722656 0-4.269531-3.457031-7.726562-7.726562-7.726562zm0 0" data-original="#1685FB" class=""/><path d="m133.40625 204.03125h12.363281c4.265625 0 7.726563-3.460938 7.726563-7.726562 0-4.265626-3.460938-7.726563-7.726563-7.726563h-12.363281c-4.265625 0-7.722656 3.460937-7.722656 7.726563 0 4.265624 3.457031 7.726562 7.722656 7.726562zm0 0" data-original="#1685FB" class=""/><path d="m133.40625 226.539062h59.644531c4.265625 0 7.726563-3.457031 7.726563-7.726562 0-4.265625-3.460938-7.722656-7.726563-7.722656h-59.644531c-4.265625 0-7.722656 3.457031-7.722656 7.722656 0 4.269531 3.457031 7.726562 7.722656 7.726562zm0 0" data-original="#1685FB" class=""/><path d="m180.6875 204.03125h12.363281c4.265625 0 7.726563-3.460938 7.726563-7.726562 0-4.265626-3.460938-7.726563-7.726563-7.726563h-12.363281c-4.265625 0-7.722656 3.460937-7.722656 7.726563 0 4.265624 3.457031 7.726562 7.722656 7.726562zm0 0" data-original="#1685FB" class=""/><path d="m227.96875 204.03125h12.363281c4.265625 0 7.726563-3.460938 7.726563-7.726562 0-4.265626-3.460938-7.726563-7.726563-7.726563h-12.363281c-4.265625 0-7.726562 3.460937-7.726562 7.726563 0 4.265624 3.460937 7.726562 7.726562 7.726562zm0 0" data-original="#1685FB" class=""/><path d="m133.40625 248.882812h59.644531c4.265625 0 7.726563-3.460937 7.726563-7.726562 0-4.269531-3.460938-7.726562-7.726563-7.726562h-59.644531c-4.265625 0-7.722656 3.457031-7.722656 7.726562 0 4.265625 3.457031 7.726562 7.722656 7.726562zm0 0" data-original="#1685FB" class=""/><path d="m133.40625 271.222656h94.5625c4.265625 0 7.726562-3.460937 7.726562-7.726562s-3.460937-7.726563-7.726562-7.726563h-94.5625c-4.265625 0-7.722656 3.460938-7.722656 7.726563s3.457031 7.726562 7.722656 7.726562zm0 0" data-original="#1685FB" class=""/><path d="m133.40625 293.5625h106.925781c4.265625 0 7.726563-3.457031 7.726563-7.726562 0-4.265626-3.460938-7.726563-7.726563-7.726563h-106.925781c-4.265625 0-7.722656 3.460937-7.722656 7.726563 0 4.269531 3.457031 7.726562 7.722656 7.726562zm0 0" data-original="#1685FB" class=""/><path d="m154.699219 314.105469h-21.289063c-4.269531 0-7.726562 3.457031-7.726562 7.726562v21.289063c0 4.269531 3.457031 7.726562 7.726562 7.726562h21.289063c4.265625 0 7.726562-3.460937 7.726562-7.726562v-21.289063c0-4.269531-3.460937-7.726562-7.726562-7.726562zm-7.726563 21.289062h-5.839844v-5.835937h5.839844zm0 0" data-original="#1685FB" class=""/><path d="m205.78125 314.105469h-21.289062c-4.265626 0-7.726563 3.457031-7.726563 7.726562v21.289063c0 4.269531 3.460937 7.726562 7.726563 7.726562h21.289062c4.269531 0 7.726562-3.460937 7.726562-7.726562v-21.289063c0-4.269531-3.457031-7.726562-7.726562-7.726562zm-7.726562 21.289062h-5.835938v-5.835937h5.835938zm0 0" data-original="#1685FB" class=""/><path d="m256.867188 314.105469h-21.292969c-4.265625 0-7.722657 3.457031-7.722657 7.726562v21.289063c0 4.269531 3.457032 7.726562 7.722657 7.726562h21.292969c4.265624 0 7.726562-3.460937 7.726562-7.726562v-21.289063c0-4.269531-3.460938-7.726562-7.726562-7.726562zm-7.726563 21.289062h-5.835937v-5.835937h5.835937zm0 0" data-original="#1685FB" class=""/><path d="m154.699219 368.359375h-21.289063c-4.269531 0-7.726562 3.460937-7.726562 7.726563v21.292968c0 4.265625 3.457031 7.726563 7.726562 7.726563h21.289063c4.265625 0 7.726562-3.460938 7.726562-7.726563v-21.292968c0-4.265626-3.460937-7.726563-7.726562-7.726563zm-7.726563 21.292969h-5.839844v-5.839844h5.839844zm0 0" data-original="#1685FB" class=""/><path d="m205.78125 368.359375h-21.289062c-4.265626 0-7.726563 3.460937-7.726563 7.726563v21.292968c0 4.265625 3.460937 7.726563 7.726563 7.726563h21.289062c4.269531 0 7.726562-3.460938 7.726562-7.726563v-21.292968c0-4.265626-3.457031-7.726563-7.726562-7.726563zm-7.726562 21.292969h-5.835938v-5.839844h5.835938zm0 0" data-original="#1685FB" class=""/><path d="m256.867188 368.359375h-21.292969c-4.265625 0-7.722657 3.460937-7.722657 7.726563v21.292968c0 4.265625 3.457032 7.726563 7.722657 7.726563h21.292969c4.265624 0 7.726562-3.460938 7.726562-7.726563v-21.292968c0-4.265626-3.460938-7.726563-7.726562-7.726563zm-7.726563 21.292969h-5.835937v-5.839844h5.835937zm0 0" data-original="#1685FB" class=""/></g><path d="m322.425781 215.761719-33.171875 16.492187c-3.703125 1.839844-7.746094-1.796875-6.3125-5.671875l12.847656-34.746093zm0 0" fill="#4e7693" data-original="#4E7693" class=""/><path d="m329.558594 213.722656 133.140625-148.21875c2.808593-3.121094 2.554687-7.929687-.574219-10.742187l-21.1875-19.03125c-3.128906-2.808594-7.933594-2.546875-10.742188.578125l-133.140624 148.21875c-2.808594 3.128906-2.550782 7.929687.578124 10.742187l21.183594 19.03125c3.132813 2.808594 7.933594 2.554688 10.742188-.578125zm0 0" fill="#c0ff66" data-original="#C0FF66" class="active-path" data-old_color="#c0ff66" style="fill:#FFC400"/><path d="m329.558594 213.722656 133.140625-148.21875c2.808593-3.121094 2.554687-7.929687-.574219-10.742187l-10.59375-9.515625-143.304688 159.539062 10.589844 9.515625c3.132813 2.808594 7.933594 2.554688 10.742188-.578125zm0 0" fill="#9be058" data-original="#9BE058" class="" data-old_color="#9be058" style="fill:#E0B115"/><path d="m448.277344 81.558594 14.421875-16.050782c2.804687-3.125 2.554687-7.933593-.578125-10.742187l-21.183594-19.03125c-3.128906-2.8125-7.9375-2.550781-10.742188.574219l-14.421874 16.054687zm0 0" fill="#fd82ac" data-original="#FD82AC" class="" style="fill:#00BF6F" data-old_color="#fd82ac"/></g> </svg>
